<?xml version="1.0" encoding="utf-8"?>
<!DOCTYPE svg PUBLIC "-//W3C//DTD SVG 1.1//EN" "http://www.w3.org/Graphics/SVG/1.1/DTD/svg11.dtd">
<svg version="1.1" id="Layer_1" xmlns="http://www.w3.org/2000/svg" xmlns:xlink="http://www.w3.org/1999/xlink" x="0px" y="0px"
	 viewBox="20 20 200.1 185.8" enable-background="new 20 20 200.1 185.8" xml:space="preserve">
<path fill="#4E4E4E" d="M190,20H40c-11,0-20,9-20,20v120c0,11,9,20,20,20h135.9c2.7,0,5.2,1.1,7.1,2.9l20,20
	c6.3,6.3,17.1,1.8,17.1-7.1V50C220,33.5,206.5,20,190,20z M170,70H70c-5.5,0-10-4.5-10-10l0,0c0-5.5,4.5-10,10-10h100
	c5.5,0,10,4.5,10,10l0,0C180,65.5,175.5,70,170,70z M170,110H70c-5.5,0-10-4.5-10-10l0,0c0-5.5,4.5-10,10-10h100c5.5,0,10,4.5,10,10
	l0,0C180,105.5,175.5,110,170,110z M140,150H70c-5.5,0-10-4.5-10-10l0,0c0-5.5,4.5-10,10-10h70c5.5,0,10,4.5,10,10l0,0
	C150,145.5,145.5,150,140,150z"/>
</svg>
