<?xml version="1.0" encoding="utf-8"?>
<!DOCTYPE svg PUBLIC "-//W3C//DTD SVG 1.1//EN" "http://www.w3.org/Graphics/SVG/1.1/DTD/svg11.dtd">
<svg version="1.1" id="Layer_1" xmlns="http://www.w3.org/2000/svg" xmlns:xlink="http://www.w3.org/1999/xlink" x="0px" y="0px"
	 viewBox="40.1 0.2 171.6 192" enable-background="new 40.1 0.2 171.6 192" xml:space="preserve">
<path fill="#4E4E4E" d="M193.1,158c-2-3.1-6-4-9.2-2.1c-13.6,8.5-29.2,13-45.3,13c-47,0-85.3-38.2-85.3-85.3
	c0-28.8,14.4-55.5,38.5-71.3c3.1-2,3.9-6.1,1.9-9.2c-2-3.1-6.1-3.9-9.2-1.9C56.8,19.6,40.1,50.4,40.1,83.7
	c0,43.9,28.9,81.2,68.7,93.9c-11.3,3.2-19.4,8.4-21.7,14.6h94.8c-2.1-5.4-8.6-10.1-17.8-13.3c9.5-2.5,18.5-6.5,26.9-11.7
	C194.1,165.2,195.1,161.1,193.1,158z"/>
<path fill="#4E4E4E" d="M136.5,8.9c-41.5,0-75.2,33.7-75.2,75.2c0,41.6,33.7,75.2,75.2,75.2s75.2-33.7,75.2-75.2
	C211.7,42.6,178,8.9,136.5,8.9z M168.3,107.3c0,1.2-0.4,3-0.9,4.1l-5.5,11.6c-0.5,1.1-1.6,2.6-2.5,3.4l-17.9,16.7
	c-0.9,0.8-0.6,1.5,0.6,1.5h2c1.2,0,2.1,0.8,2.1,1.9c0,1-1,1.9-2.1,1.9h-8.8c-1.2,0-2.1-1-2.1-2.2v-22.9c0-1.2,1-2.2,2.1-2.2h2.4
	c1.2,0,2.2-1,2.2-2.1v-2.4c0-1.2-1-2.2-2.2-2.2h-2.4c-1.2,0-2.1-1-2.1-2.1V98.9c0-1.2-1-2.1-2.2-2.1h-3.6c-1.2,0-2.9-0.6-3.9-1.2
	l-11.6-8.2c-1-0.7-2.2-2.1-2.8-3.1l-5.4-9.2c-0.6-1-2.1-1.9-3.2-1.9h-2.6c-1.2,0-2.6-0.9-3.1-1.9l-6.3-13c-0.5-1.1-0.9-2.9-0.9-4.1
	v-7.4c0-1.2-0.9-1.9-2.1-1.5L83,46c10.9-15.3,28.2-25.6,47.9-27.3v8.9c0,1.2,0.8,2.7,1.8,3.4l4,2.8c1,0.7,2.7,1.2,3.9,1.2h3.2
	c1.2,0,2.2,0.8,2.2,1.7c0,1-0.7,2.4-1.5,3.3l-4.6,4.8c-0.8,0.9-0.5,1.6,0.7,1.6l3.1,0c1.2,0,2.1,1,2.1,2.2l0,7.7
	c0,1.2,1,2.1,2.1,2.1h3.5c1.2,0,2.2,0.7,2.2,1.6c0,0.9-1,1.6-2.2,1.6h-10.6c-1.2,0-2.9,0.6-3.9,1.3l-4.3,3.3
	c-0.9,0.7-1.7,2.3-1.7,3.5l0,12.8c0,1.2-1,2.2-2.1,2.2h-0.6c-1.2,0-2.1-1-2.1-2.2v-7.4c0-1.2-1-2.1-2.1-2.1H118
	c-1.2,0-2.1,1-2.2,2.1l0,6c0,1.2,0.7,2.8,1.7,3.5l8.6,6.9c0.9,0.7,2.6,1.3,3.8,1.3l14.3,0c1.2,0,3,0.5,4.1,1l18.2,9.5
	c1,0.5,1.9,2,1.9,3.1L168.3,107.3L168.3,107.3L168.3,107.3z M162.8,42.9c-1,0.7-2.7,1.3-3.9,1.3H158c-1.2,0-2.1-1-2.1-2.2v-7
	c0-1.2-1-2.1-2.1-2.1h-3.1c-1.2,0-2.1-1-2.1-2.1V19.5c10.3,1.9,19.8,6.2,27.8,12.3C175.9,32.7,162.8,42.9,162.8,42.9z"/>
</svg>
