<?xml version="1.0" encoding="utf-8"?>
<!DOCTYPE svg PUBLIC "-//W3C//DTD SVG 1.1//EN" "http://www.w3.org/Graphics/SVG/1.1/DTD/svg11.dtd">
<svg version="1.1"
	 id="Layer_1" xmlns:cc="http://creativecommons.org/ns#" xmlns:rdf="http://www.w3.org/1999/02/22-rdf-syntax-ns#" xmlns:dc="http://purl.org/dc/elements/1.1/"
	 xmlns="http://www.w3.org/2000/svg" xmlns:xlink="http://www.w3.org/1999/xlink" x="0px" y="0px" viewBox="51.9 9.5 136.3 172.9"
	 enable-background="new 51.9 9.5 136.3 172.9" xml:space="preserve">
<path fill="#4E4E4E" d="M76.8,9.5c-13.7,0-24.9,11.4-24.9,25.1c0,11,7.3,20.4,17.2,23.6v75.4c-10,3.3-17.2,12.8-17.2,23.8
	c0,13.7,11.2,24.9,24.9,24.9s25-11.2,25-24.9c0-11-7.3-20.5-17.3-23.8v-1.2c0-11.4,3.5-15.8,9.9-19.9c6.4-4,16.5-6.5,27.4-9.2
	c10.9-2.7,22.7-5.6,32.5-12.9c8.9-6.7,15.3-17.4,16.4-32.2c10.1-3.2,17.5-12.6,17.5-23.7c0-13.7-11.3-25.1-25-25.1
	s-24.9,11.4-24.9,25.1c0,10.9,7.2,20.3,17,23.6c-0.8,10.5-4.6,15.9-10.3,20.1c-6.4,4.8-16.2,7.6-26.9,10.3
	c-10.7,2.6-22.2,4.9-32,11.1c-0.6,0.4-1.2,0.7-1.7,1.1V58.3c10-3.3,17.3-12.6,17.3-23.6C101.8,20.9,90.5,9.5,76.8,9.5z M76.8,25
	c5.4,0,9.7,4.3,9.7,9.7s-4.3,9.5-9.7,9.5s-9.6-4.1-9.6-9.5S71.4,25,76.8,25z M163.2,25c5.4,0,9.7,4.3,9.7,9.7s-4.3,9.5-9.7,9.5
	s-9.6-4.1-9.6-9.5S157.8,25,163.2,25z M76.8,147.8c5.4,0,9.7,4.3,9.7,9.7s-4.3,9.5-9.7,9.5s-9.6-4.1-9.6-9.5S71.4,147.8,76.8,147.8z
	"/>
</svg>
